<svg width="1728" height="1117" viewBox="0 0 1728 1117" fill="none" xmlns="http://www.w3.org/2000/svg">
<g style="mix-blend-mode:soft-light">
<path d="M0 -306L36.8172 -283.401M90.9474 -306L128.911 -285.385M181.895 -306L220.653 -286.921M272.842 -306L312.072 -287.91M363.789 -306L403.181 -288.264M454.737 -306L493.968 -287.913M545.684 -306L584.39 -286.815M636.632 -306L674.369 -284.973M727.579 -306L763.795 -282.449M818.526 -306L852.545 -279.374M909.474 -306L940.51 -275.95M1000.42 -306L1027.62 -272.436M1091.37 -306L1113.87 -269.121M1182.32 -306L1199.32 -266.289M1273.26 -306L1284.12 -264.187M1364.21 -306L1368.44 -263.008M1455.16 -306L1452.51 -262.881M1546.11 -306L1536.54 -263.872M1637.05 -306L1620.77 -265.986M1728 -306L1705.4 -269.183M0 -215.053L40.0137 -198.769M90.9474 -215.053L131.855 -201.167M181.895 -215.053L223.395 -203.053M272.842 -215.053L314.685 -204.31M363.789 -215.053L405.763 -204.832M454.737 -215.053L496.633 -204.52M545.684 -215.053L587.256 -203.304M636.632 -215.053L677.536 -201.156M727.579 -215.053L767.322 -198.12M818.526 -215.053L856.432 -194.331M909.474 -215.053L944.689 -190.03M1000.42 -215.053L1031.97 -185.539M1091.37 -215.053L1118.24 -181.224M1182.32 -215.053L1203.56 -177.438M1273.26 -215.053L1288.11 -174.482M1364.21 -215.053L1372.09 -172.577M1455.16 -215.053L1455.75 -171.857M1546.11 -215.053L1539.37 -172.382M1637.05 -215.053L1623.17 -174.145M1728 -215.053L1707.38 -177.089M0 -124.105L42.1283 -114.543M90.9474 -124.105L133.618 -117.366M181.895 -124.105L224.862 -119.624M272.842 -124.105L315.944 -121.188M363.789 -124.105L406.935 -121.931M454.737 -124.105L497.871 -121.722M545.684 -124.105L588.729 -120.447M636.632 -124.105L679.402 -118.029M727.579 -124.105L769.691 -114.473M818.526 -124.105L859.327 -109.908M909.474 -124.105L948.028 -104.617M1000.42 -124.105L1035.59 -99.0165M1091.37 -124.105L1121.94 -93.582M1182.32 -124.105L1207.16 -88.7648M1273.26 -124.105L1291.46 -84.9241M1364.21 -124.105L1375.1 -82.3016M1455.16 -124.105L1458.4 -81.0269M1546.11 -124.105L1541.62 -81.1384M1637.05 -124.105L1625.05 -82.6054M1728 -124.105L1708.92 -85.3466M0 -33.1579L43.1187 -30.5088M90.9474 -33.1579L134.143 -33.754M181.895 -33.1579L224.973 -36.3967M272.842 -33.1579L315.735 -38.3023M363.789 -33.1579L406.547 -39.3243M454.737 -33.1579L497.498 -39.3006M545.684 -33.1579L588.605 -38.059M636.632 -33.1579L679.771 -35.4448M727.579 -33.1579L770.742 -31.3832M818.526 -33.1579L861.124 -25.9694M909.474 -33.1579L950.471 -19.539M1000.42 -33.1579L1038.44 -12.6483M1091.37 -33.1579L1124.92 -5.94754M1182.32 -33.1579L1210.03 -0.022522M1273.26 -33.1579L1294.06 4.70422M1364.21 -33.1579L1377.37 7.98935M1455.16 -33.1579L1460.3 9.73471M1546.11 -33.1579L1543.19 9.94354M1637.05 -33.1579L1626.31 8.68515M1728 -33.1579L1709.91 6.0723M0 57.7895L42.9921 53.5562M90.9474 57.7895L133.423 49.914M181.895 57.7895L223.698 46.895M272.842 57.7895L313.989 44.631M363.789 57.7895L404.478 43.2744M454.737 57.7895L495.331 43.0139M545.684 57.7895L586.653 44.0863M636.632 57.7895L677.118 47.1016M727.579 57.7895L767.441 51.7033M818.526 57.7895L858.04 57.6292M909.474 57.7895L948.368 64.7572M1000.42 57.7895L1037.85 72.7836M1091.37 57.7895L1126.04 81.265M1182.32 57.7895L1212.08 89.0989M1273.26 57.7895L1295.78 94.6543M1364.21 57.7895L1378.73 98.478M1455.16 57.7895L1461.32 100.547M1546.11 57.7895L1543.93 100.935M1637.05 57.7895L1626.83 99.763M1728 57.7895L1710.26 97.1809M0 148.737L41.8134 137.88M90.9474 148.737L131.518 133.895M181.895 148.737L221.076 130.541M272.842 148.737L310.704 127.935M363.789 148.737L400.654 126.215M454.737 148.737L491.201 125.572M545.684 148.737L580.139 127.787M636.632 148.737L670.174 131.288M727.579 148.737L761.266 136.127M818.526 148.737L852.943 142.433M909.474 148.737L944.435 150.142M1000.42 148.737L1034.94 158.861M1091.37 148.737L1123.9 167.998M1182.32 148.737L1211.1 176.975M1273.26 148.737L1296.43 185.201M1364.21 148.737L1378.99 189.331M1455.16 148.737L1461.3 191.498M1546.11 148.737L1543.72 191.871M1637.05 148.737L1626.52 190.633M1728 148.737L1709.91 187.968M0 239.684L39.7113 222.677M90.9474 239.684L128.562 218.438M181.895 239.684L217.235 214.839M272.842 239.684L305.977 211.966M363.789 239.684L395.099 209.919M454.737 239.684L482.975 210.898M545.684 239.684L571.681 213.486M636.632 239.684L662.016 217.126M727.579 239.684L753.95 222.064M818.526 239.684L846.952 228.69M909.474 239.684L939.84 237.089M1000.42 239.684L1031.37 246.628M1091.37 239.684L1120.94 256.38M1182.32 239.684L1208.51 265.681M1273.26 239.684L1294.21 274.139M1364.21 239.684L1377.91 280.653M1455.16 239.684L1460.06 282.605M1546.11 239.684L1542.45 282.729M1637.05 239.684L1625.3 281.256M1728 239.684L1708.81 278.39M0 330.632L36.8786 308.133M90.9474 330.632L124.776 303.765M181.895 330.632L212.418 300.061M272.842 330.632L300.052 297.078M363.789 330.632L387.265 295.958M454.737 330.632L473.998 298.096M545.684 330.632L562.38 301.06M636.632 330.632L652.775 304.781M727.579 330.632L745.509 309.573M818.526 330.632L840.266 316.381M909.474 330.632L935.021 325.839M1000.42 330.632L1027.44 336.542M1091.37 330.632L1117.22 346.775M1182.32 330.632L1204.87 356.016M1273.26 330.632L1290.71 364.174M1364.21 330.632L1374.9 371.118M1455.16 330.632L1457.44 373.771M1546.11 330.632L1540.03 373.402M1637.05 330.632L1623.16 371.536M1728 330.632L1706.97 368.369M0 421.579L33.5637 394.381M90.9474 421.579L120.461 390.032M181.895 421.579L206.983 386.411M272.842 421.579L293.352 383.558M363.789 421.579L378.784 384.146M454.737 421.579L464.861 387.063M545.684 421.579L552.628 390.633M636.632 421.579L642.542 394.56M727.579 421.579L735.483 398.869M818.526 421.579L832.653 405.252M909.474 421.579L930.571 416.994M1000.42 421.579L1023.13 429.483M1091.37 421.579L1112.43 439.509M1182.32 421.579L1199.94 447.95M1273.26 421.579L1285.87 455.266M1364.21 421.579L1370.3 461.441M1455.16 421.579L1453.38 464.742M1546.11 421.579L1536.47 463.691M1637.05 421.579L1620.12 461.322M1728 421.579L1704.45 457.795M0 512.526L30.0501 481.49M90.9474 512.526L115.97 477.311M181.895 512.526L201.383 473.972M272.842 512.526L286.461 471.529M363.789 512.526L370.757 473.632M454.737 512.526L456.142 477.565M545.684 512.526L543.089 482.16M636.632 512.526L631.839 486.979M727.579 512.526L722.994 491.429M818.526 512.526L820.489 495.021M909.474 512.526L926.979 514.489M1000.42 512.526L1016.75 526.653M1091.37 512.526L1105.62 534.266M1182.32 512.526L1193.31 540.952M1273.26 512.526L1279.57 546.943M1364.21 512.526L1364.37 552.04M1455.16 512.526L1447.97 555.124M1546.11 512.526L1531.91 553.327M1637.05 512.526L1616.33 550.432M1728 512.526L1701.37 546.545M0 603.474L26.6262 569.455M90.9474 603.474L111.669 565.568M181.895 603.474L196.092 562.673M272.842 603.474L280.031 560.876M363.789 603.474L363.629 563.96M454.737 603.474L448.433 569.057M545.684 603.474L534.69 575.048M636.632 603.474L622.381 581.734M727.579 603.474L711.252 589.347M818.526 603.474L801.021 601.511M909.474 603.474L907.511 620.979M1000.42 603.474L1005.01 624.571M1091.37 603.474L1096.16 629.021M1182.32 603.474L1184.91 633.84M1273.26 603.474L1271.86 638.435M1364.21 603.474L1357.24 642.368M1455.16 603.474L1441.54 644.471M1546.11 603.474L1526.62 642.028M1637.05 603.474L1612.03 638.689M1728 603.474L1697.95 634.51M0 694.421L23.551 658.205M90.9474 694.421L107.88 654.678M181.895 694.421L191.527 652.309M272.842 694.421L274.617 651.258M363.789 694.421L357.703 654.559M454.737 694.421L442.127 660.734M545.684 694.421L528.064 668.05M636.632 694.421L615.573 676.491M727.579 694.421L704.869 686.517M818.526 694.421L797.429 699.006M909.474 694.421L895.347 710.748M1000.42 694.421L992.517 717.131M1091.37 694.421L1085.46 721.44M1182.32 694.421L1175.37 725.367M1273.26 694.421L1263.14 728.937M1364.21 694.421L1349.22 731.854M1455.16 694.421L1434.65 732.442M1546.11 694.421L1521.02 729.589M1637.05 694.421L1607.54 725.968M1728 694.421L1694.44 721.619M0 785.368L21.0269 747.631M90.9474 785.368L104.844 744.464M181.895 785.368L187.971 742.598M272.842 785.368L270.555 742.229M363.789 785.368L353.102 744.882M454.737 785.368L437.288 751.827M545.684 785.368L523.126 759.984M636.632 785.368L610.781 769.225M727.579 785.368L700.56 779.458M818.526 785.368L792.979 790.161M909.474 785.368L887.734 799.619M1000.42 785.368L982.491 806.427M1091.37 785.368L1075.22 811.219M1182.32 785.368L1165.62 814.94M1273.26 785.368L1254 817.904M1364.21 785.368L1340.73 820.042M1455.16 785.368L1427.95 818.922M1546.11 785.368L1515.58 815.939M1637.05 785.368L1603.22 812.235M1728 785.368L1691.12 807.868M0 876.316L19.1853 837.61M90.9474 876.316L102.696 834.744M181.895 876.316L185.553 833.271M272.842 876.316L267.941 833.395M363.789 876.316L350.086 835.347M454.737 876.316L433.787 841.861M545.684 876.316L519.486 850.319M636.632 876.316L607.06 859.62M727.579 876.316L696.633 869.372M818.526 876.316L788.16 878.911M909.474 876.316L881.048 887.31M1000.42 876.316L974.05 893.936M1091.37 876.316L1065.98 898.874M1182.32 876.316L1156.32 902.515M1273.26 876.316L1245.03 905.102M1364.21 876.316L1332.9 906.081M1455.16 876.316L1422.02 904.034M1546.11 876.316L1510.76 901.161M1637.05 876.316L1599.44 897.562M1728 876.316L1688.29 893.323M0 967.263L18.0874 928.032M90.9474 967.263L101.48 925.367M181.895 967.263L184.278 924.129M272.842 967.263L266.699 924.502M363.789 967.263L349.014 926.669M454.737 967.263L431.572 930.799M545.684 967.263L516.898 939.025M636.632 967.263L604.096 948.002M727.579 967.263L693.063 957.139M818.526 967.263L783.565 965.859M909.474 967.263L875.057 973.567M1000.42 967.263L966.734 979.874M1091.37 967.263L1057.83 984.712M1182.32 967.263L1147.86 988.213M1273.26 967.263L1236.8 990.428M1364.21 967.263L1327.35 989.785M1455.16 967.263L1417.3 988.065M1546.11 967.263L1506.92 985.459M1637.05 967.263L1596.48 982.105M1728 967.263L1686.19 978.12M0 1058.21L17.7357 1018.82M90.9474 1058.21L101.168 1016.24M181.895 1058.21L184.069 1015.07M272.842 1058.21L266.676 1015.45M363.789 1058.21L349.274 1017.52M454.737 1058.21L432.215 1021.35M545.684 1058.21L515.919 1026.9M636.632 1058.21L601.958 1034.73M727.579 1058.21L690.146 1043.22M818.526 1058.21L779.632 1051.24M909.474 1058.21L869.96 1058.37M1000.42 1058.21L960.559 1064.3M1091.37 1058.21L1050.88 1068.9M1182.32 1058.21L1141.35 1071.91M1273.26 1058.21L1232.67 1072.99M1364.21 1058.21L1323.52 1072.73M1455.16 1058.21L1414.01 1071.37M1546.11 1058.21L1504.3 1069.1M1637.05 1058.21L1594.58 1066.09M1728 1058.21L1685.01 1062.44M0 1149.16L18.0895 1109.93M90.9474 1149.16L101.69 1107.31M181.895 1149.16L184.812 1106.06M272.842 1149.16L267.698 1106.27M363.789 1149.16L350.631 1108.01M454.737 1149.16L433.935 1111.3M545.684 1149.16L517.966 1116.02M636.632 1149.16L603.078 1121.95M727.579 1149.16L689.558 1128.65M818.526 1149.16L777.529 1135.54M909.474 1149.16L866.876 1141.97M1000.42 1149.16L957.258 1147.38M1091.37 1149.16L1048.23 1151.44M1182.32 1149.16L1139.39 1154.06M1273.26 1149.16L1230.5 1155.3M1364.21 1149.16L1321.45 1155.32M1455.16 1149.16L1412.27 1154.3M1546.11 1149.16L1503.03 1152.4M1637.05 1149.16L1593.86 1149.75M1728 1149.16L1684.88 1146.51M0 1240.11L19.0788 1201.35M90.9474 1240.11L102.947 1198.61M181.895 1240.11L186.376 1197.14M272.842 1240.11L269.603 1197.03M363.789 1240.11L352.895 1198.3M454.737 1240.11L436.541 1200.92M545.684 1240.11L520.839 1204.76M636.632 1240.11L606.061 1209.58M727.579 1240.11L692.411 1215.02M818.526 1240.11L779.972 1220.62M909.474 1240.11L868.673 1225.91M1000.42 1240.11L958.309 1230.47M1091.37 1240.11L1048.6 1234.03M1182.32 1240.11L1139.27 1236.45M1273.26 1240.11L1230.13 1237.72M1364.21 1240.11L1321.07 1237.93M1455.16 1240.11L1412.06 1237.19M1546.11 1240.11L1503.14 1235.62M1637.05 1240.11L1594.38 1233.37M1728 1240.11L1685.87 1230.54M0 1331.05L20.6153 1293.09M90.9474 1331.05L104.833 1290.14M181.895 1331.05L188.634 1288.38M272.842 1331.05L272.246 1287.86M363.789 1331.05L355.914 1288.58M454.737 1331.05L439.895 1290.48M545.684 1331.05L524.438 1293.44M636.632 1331.05L609.765 1297.22M727.579 1331.05L696.032 1301.54M818.526 1331.05L783.311 1306.03M909.474 1331.05L871.568 1310.33M1000.42 1331.05L960.678 1314.12M1091.37 1331.05L1050.46 1317.16M1182.32 1331.05L1140.74 1319.3M1273.26 1331.05L1231.37 1320.52M1364.21 1331.05L1322.24 1320.83M1455.16 1331.05L1413.31 1320.31M1546.11 1331.05L1504.61 1319.05M1637.05 1331.05L1596.14 1317.17M1728 1331.05L1687.99 1314.77M0 1422L22.5994 1385.18M90.9474 1422L107.231 1381.99M181.895 1422L191.457 1379.87M272.842 1422L275.491 1378.88M363.789 1422L359.556 1379.01M454.737 1422L443.88 1380.19M545.684 1422L528.677 1382.29M636.632 1422L614.133 1385.12M727.579 1422L700.381 1388.44M818.526 1422L787.49 1391.95M909.474 1422L875.455 1395.37M1000.42 1422L964.205 1398.45M1091.37 1422L1053.63 1400.97M1182.32 1422L1143.61 1402.81M1273.26 1422L1234.03 1403.91M1364.21 1422L1324.82 1404.26M1455.16 1422L1415.93 1403.91M1546.11 1422L1507.35 1402.92M1637.05 1422L1599.09 1401.38M1728 1422L1691.18 1399.4" stroke="#CAF9DE" stroke-width="3" stroke-linecap="round"/>
</g>
</svg>
